<?xml version="1.0" encoding="UTF-8"?>
<svg xmlns="http://www.w3.org/2000/svg" xmlns:xlink="http://www.w3.org/1999/xlink" width="500" zoomAndPan="magnify" viewBox="0 0 375 374.999991" height="500" preserveAspectRatio="xMidYMid meet" version="1.0">
  <defs>
    <clipPath id="5ebef23105">
      <path d="M 245.542969 66.332031 L 346.578125 66.332031 L 346.578125 314.09375 L 245.542969 314.09375 Z M 245.542969 66.332031 " clip-rule="nonzero"></path>
    </clipPath>
  </defs>
  <path fill="#000000" d="M 25.871094 312.476562 L 49.371094 69.289062 L 131.746094 69.289062 L 154.964844 312.476562 L 108.824219 312.476562 L 105.417969 273.117188 L 75.980469 273.117188 L 73.152344 312.476562 Z M 79.652344 234.335938 L 101.746094 234.335938 L 90.980469 110.617188 L 88.714844 110.617188 Z M 79.652344 234.335938 " fill-opacity="1" fill-rule="nonzero"></path>
  <path fill="#000000" d="M 167.425781 69.289062 L 214.410156 69.289062 L 214.410156 312.476562 L 167.425781 312.476562 Z M 167.425781 69.289062 " fill-opacity="1" fill-rule="nonzero"></path>
  <g clip-path="url(#5ebef23105)">
    <path fill="#000000" d="M 245.542969 66.332031 L 346.578125 66.332031 L 346.578125 314.183594 L 245.542969 314.183594 Z M 245.542969 66.332031 " fill-opacity="1" fill-rule="nonzero"></path>
  </g>
  <path fill="#ffffff" d="M 316.269531 265.886719 L 328.769531 265.886719 L 328.769531 296.824219 C 328.769531 297.441406 328.519531 297.746094 328.019531 297.746094 L 262.441406 297.746094 C 261.933594 297.746094 261.675781 297.441406 261.675781 296.824219 L 261.675781 265.886719 L 273.847656 265.886719 L 273.847656 284.917969 L 289.019531 284.917969 L 289.019531 258.589844 C 289.019531 257.976562 289.269531 257.667969 289.769531 257.667969 L 300.425781 257.667969 C 300.925781 257.667969 301.175781 257.976562 301.175781 258.589844 L 301.175781 284.917969 L 316.269531 284.917969 Z M 316.269531 265.886719 " fill-opacity="1" fill-rule="nonzero"></path>
  <path fill="#ffffff" d="M 316.269531 220.019531 L 328.769531 220.019531 L 328.769531 250.957031 C 328.769531 251.574219 328.519531 251.878906 328.019531 251.878906 L 262.441406 251.878906 C 261.933594 251.878906 261.675781 251.574219 261.675781 250.957031 L 261.675781 220.019531 L 273.847656 220.019531 L 273.847656 239.050781 L 289.019531 239.050781 L 289.019531 212.722656 C 289.019531 212.109375 289.269531 211.800781 289.769531 211.800781 L 300.425781 211.800781 C 300.925781 211.800781 301.175781 212.109375 301.175781 212.722656 L 301.175781 239.050781 L 316.269531 239.050781 Z M 316.269531 220.019531 " fill-opacity="1" fill-rule="nonzero"></path>
  <path fill="#ffffff" d="M 291.535156 175.234375 C 293.160156 171.714844 295.527344 169.023438 298.628906 167.15625 C 301.722656 165.28125 305.253906 164.34375 309.222656 164.34375 C 313.421875 164.34375 316.972656 165.339844 319.878906 167.328125 C 322.785156 169.308594 324.996094 171.875 326.503906 175.03125 C 328.015625 178.1875 328.769531 181.558594 328.769531 185.140625 C 328.769531 185.140625 328.769531 185.167969 328.769531 185.21875 L 316.691406 185.21875 C 316.691406 185.167969 316.691406 185.140625 316.691406 185.140625 C 316.691406 182.902344 316.011719 180.945312 314.644531 179.265625 C 313.269531 177.589844 311.464844 176.75 309.222656 176.75 C 307.546875 176.75 306.125 177.183594 304.957031 178.046875 C 303.78125 178.914062 302.859375 179.992188 302.191406 181.28125 C 301.515625 182.5625 301.152344 183.851562 301.097656 185.140625 C 301.097656 185.414062 301 186.527344 300.800781 188.484375 C 300.605469 190.445312 299.949219 192.652344 298.832031 195.109375 C 297.207031 198.578125 294.957031 201.265625 292.082031 203.171875 C 289.207031 205.070312 285.8125 206.015625 281.894531 206.015625 C 277.699219 206.015625 274.09375 205.027344 271.082031 203.046875 C 268.0625 201.058594 265.738281 198.46875 264.113281 195.28125 C 262.488281 192.09375 261.675781 188.714844 261.675781 185.140625 C 261.675781 181.277344 262.472656 177.808594 264.066406 174.734375 C 265.660156 171.664062 267.902344 169.21875 270.785156 167.40625 C 273.660156 165.585938 277 164.648438 280.800781 164.59375 C 280.917969 164.53125 281.058594 164.601562 281.222656 164.796875 C 281.390625 164.996094 281.472656 165.234375 281.472656 165.515625 L 281.472656 176 C 281.472656 176.21875 281.390625 176.429688 281.222656 176.625 C 281.058594 176.824219 280.917969 176.921875 280.800781 176.921875 C 278.394531 176.976562 276.621094 177.8125 275.472656 179.4375 C 274.328125 181.054688 273.753906 182.953125 273.753906 185.140625 C 273.753906 187.433594 274.441406 189.402344 275.816406 191.046875 C 277.183594 192.695312 279.207031 193.515625 281.894531 193.515625 C 284.300781 193.515625 286.136719 192.652344 287.394531 190.921875 C 288.644531 189.195312 289.269531 187.265625 289.269531 185.140625 C 289.269531 184.976562 289.300781 184.417969 289.363281 183.46875 C 289.417969 182.511719 289.597656 181.292969 289.910156 179.8125 C 290.214844 178.335938 290.753906 176.808594 291.535156 175.234375 Z M 291.535156 175.234375 " fill-opacity="1" fill-rule="nonzero"></path>
  <path fill="#ffffff" d="M 286.003906 144.628906 L 286.003906 131.894531 L 328.019531 131.894531 C 328.519531 131.894531 328.769531 132.230469 328.769531 132.894531 L 328.769531 143.707031 C 328.769531 144.324219 328.519531 144.628906 328.019531 144.628906 Z M 273.175781 157.550781 C 273.175781 158.167969 272.921875 158.472656 272.410156 158.472656 L 262.441406 158.472656 C 261.933594 158.472656 261.675781 158.167969 261.675781 157.550781 L 261.675781 119.066406 C 261.675781 118.441406 261.933594 118.128906 262.441406 118.128906 L 272.410156 118.128906 C 272.921875 118.128906 273.175781 118.441406 273.175781 119.066406 Z M 273.175781 157.550781 " fill-opacity="1" fill-rule="nonzero"></path>
  <path fill="#ffffff" d="M 317.285156 85.011719 C 317.285156 84.398438 317.535156 84.089844 318.035156 84.089844 L 328.019531 84.089844 C 328.519531 84.089844 328.769531 84.398438 328.769531 85.011719 L 328.769531 111.433594 C 328.769531 112.050781 328.519531 112.355469 328.019531 112.355469 L 318.035156 112.355469 C 317.535156 112.355469 317.285156 112.050781 317.285156 111.433594 L 317.285156 104.558594 L 261.675781 104.558594 L 261.675781 91.730469 L 317.285156 91.730469 Z M 317.285156 85.011719 " fill-opacity="1" fill-rule="nonzero"></path>
</svg>
